<svg width="108" height="99" viewBox="0 0 108 99" fill="none" xmlns="http://www.w3.org/2000/svg">
<path fill-rule="evenodd" clip-rule="evenodd" d="M58.8782 0.0383112C70.0596 0.0383253 78.4141 0.127093 86.799 4.94899C95.7748 10.1107 102.882 18.6094 106.154 28.6191C109.425 38.6287 107.219 49.3589 104.678 59.649C101.958 70.6596 100.107 77.1478 91.1134 83.7701C82.1323 90.3829 69.921 93.4601 58.8782 92.9445C48.3788 92.4542 37.3959 89.9365 28.7733 83.7701C20.0629 77.5411 16.0883 70.0758 12.1542 59.9573C7.93762 49.1121 6.59038 39.8489 9.70741 28.6191C12.8613 17.2565 18.2979 8.68991 28.7733 3.78556C38.2423 -0.647599 47.6969 0.0382971 58.8782 0.0383112Z" fill="url(#paint0_linear_20_21)"/>
<path fill-rule="evenodd" clip-rule="evenodd" d="M51.8782 5.03831C63.0596 5.03833 71.4141 5.12709 79.799 9.94899C88.7748 15.1107 95.8821 23.6094 99.1537 33.6191C102.425 43.6287 100.219 54.3589 97.6775 64.649C94.9581 75.6596 93.1074 82.1478 84.1134 88.7702C75.1323 95.3829 62.921 98.4601 51.8782 97.9445C41.3788 97.4542 30.3959 94.9365 21.7733 88.7702C13.0629 82.5411 9.08826 75.0758 5.15422 64.9573C0.937622 54.1121 -0.40962 44.8489 2.70741 33.6191C5.86129 22.2565 11.2979 13.6899 21.7733 8.78556C31.2423 4.3524 40.6969 5.0383 51.8782 5.03831Z" stroke="black"/>
<defs>
<linearGradient id="paint0_linear_20_21" x1="58" y1="109.5" x2="65" y2="-14" gradientUnits="userSpaceOnUse">
<stop stop-color="#C37B87"/>
<stop offset="1" stop-color="#E4A8B2"/>
</linearGradient>
</defs>
</svg>
