<svg width="234" height="238" viewBox="0 0 234 238" fill="none" xmlns="http://www.w3.org/2000/svg">
<path fill-rule="evenodd" clip-rule="evenodd" d="M168.72 163.238C159.18 178.511 151.93 189.847 138.189 197.186C123.481 205.042 105.808 207.499 89.3435 203.428C72.8794 199.356 60.1049 187.188 48.2176 174.936C35.498 161.827 28.2144 153.763 26.8424 135.828C25.4725 117.918 31.6881 98.6124 41.8143 83.9684C51.4423 70.045 64.2521 57.1911 80.032 50.6742C95.9725 44.091 109.561 45.0313 126.739 48.2908C145.151 51.7845 158.953 57.8477 171.633 71.6869C184.463 85.6897 191.526 100.425 189.287 118.918C187.264 135.635 178.26 147.964 168.72 163.238Z" fill="url(#paint0_linear_20_27)"/>
<path fill-rule="evenodd" clip-rule="evenodd" d="M189.89 156.41C180.35 171.683 173.1 183.019 159.36 190.358C144.651 198.215 126.978 200.672 110.514 196.6C94.0498 192.529 81.2753 180.36 69.388 168.109C56.6684 154.999 49.3848 146.936 48.0128 129C46.6429 111.09 52.8585 91.7847 62.9847 77.1407C72.6127 63.2172 85.4225 50.3633 101.202 43.8464C117.143 37.2632 130.731 38.2035 147.909 41.4631C166.321 44.9568 180.124 51.0199 192.803 64.8591C205.633 78.862 212.696 93.5972 210.458 112.091C208.434 128.807 199.43 141.137 189.89 156.41Z" stroke="black" stroke-width="1.61053"/>
<defs>
<linearGradient id="paint0_linear_20_27" x1="60.5" y1="47.5" x2="183.5" y2="122" gradientUnits="userSpaceOnUse">
<stop stop-color="#826F8D"/>
<stop offset="1" stop-color="#826F8D" stop-opacity="0.63"/>
</linearGradient>
</defs>
</svg>
