<svg width="64" height="69" viewBox="0 0 64 69" fill="none" xmlns="http://www.w3.org/2000/svg">
<path fill-rule="evenodd" clip-rule="evenodd" d="M2.57049 30.4752C2.90288 23.7312 3.20477 18.6948 6.36235 13.7807C9.74246 8.52043 15.0798 4.48628 21.2144 2.81054C27.3489 1.13481 33.7553 2.78448 39.8862 4.6233C46.4464 6.59085 50.3048 7.89996 54.0317 13.5216C57.7533 19.1351 59.2463 26.5918 58.607 33.237C57.9992 39.5551 56.1541 46.1046 52.1786 51.1221C48.1626 56.1906 43.5417 58.366 37.3218 60.438C30.6551 62.6589 25.028 63.1961 18.3474 60.9823C11.5878 58.7422 6.58243 55.2085 3.93575 48.7445C1.54336 42.9014 2.23811 37.2193 2.57049 30.4752Z" fill="url(#paint0_linear_14_36)"/>
<path fill-rule="evenodd" clip-rule="evenodd" d="M5.37811 34.8458C5.7105 28.1018 6.01239 23.0654 9.16997 18.1513C12.5501 12.891 17.8874 8.85688 24.022 7.18115C30.1566 5.50541 36.5629 7.15509 42.6938 8.9939C49.254 10.9615 53.1124 12.2706 56.8393 17.8922C60.5609 23.5057 62.0539 30.9624 61.4146 37.6076C60.8068 43.9257 58.9618 50.4752 54.9862 55.4927C50.9702 60.5612 46.3494 62.7366 40.1294 64.8087C33.4628 67.0295 27.8356 67.5668 21.155 65.3529C14.3954 63.1129 9.39004 59.5791 6.74337 53.1151C4.35098 47.2721 5.04572 41.5899 5.37811 34.8458Z" stroke="black" stroke-width="1.11662"/>
<defs>
<linearGradient id="paint0_linear_14_36" x1="2.51826" y1="31.065" x2="58.6114" y2="33.8295" gradientUnits="userSpaceOnUse">
<stop stop-color="#EC8282"/>
<stop offset="1" stop-color="#F9B3B3"/>
</linearGradient>
</defs>
</svg>
