<svg width="235" height="239" viewBox="0 0 235 239" fill="none" xmlns="http://www.w3.org/2000/svg">
<path fill-rule="evenodd" clip-rule="evenodd" d="M169.549 163.642C160.009 178.915 152.76 190.251 139.019 197.59C124.31 205.447 106.637 207.904 90.173 203.832C73.7089 199.76 60.9344 187.592 49.0471 175.34C36.3275 162.231 29.0439 154.167 27.672 136.232C26.302 118.322 32.5176 99.0165 42.6438 84.3725C52.2718 70.449 65.0817 57.5952 80.8615 51.0783C96.802 44.4951 110.39 45.4353 127.568 48.6949C145.98 52.1886 159.783 58.2518 172.463 72.091C185.292 86.0938 192.355 100.829 190.117 119.322C188.093 136.039 179.089 148.368 169.549 163.642Z" fill="url(#paint0_linear_14_32)"/>
<path fill-rule="evenodd" clip-rule="evenodd" d="M190.72 156.814C181.179 172.087 173.93 183.423 160.189 190.762C145.48 198.619 127.808 201.076 111.343 197.004C94.8793 192.933 82.1048 180.764 70.2175 168.512C57.4979 155.403 50.2143 147.34 48.8424 129.404C47.4724 111.494 53.688 92.1886 63.8142 77.5446C73.4422 63.6211 86.2521 50.7673 102.032 44.2504C117.972 37.6672 131.561 38.6075 148.739 41.867C167.151 45.3607 180.953 51.4239 193.633 65.2631C206.463 79.2659 213.526 94.0012 211.287 112.495C209.264 129.211 200.26 141.54 190.72 156.814Z" stroke="black" stroke-width="1.61053"/>
<defs>
<linearGradient id="paint0_linear_14_32" x1="90.5" y1="211" x2="117" y2="44" gradientUnits="userSpaceOnUse">
<stop stop-color="#436383"/>
<stop offset="1" stop-color="#A0C3E6"/>
</linearGradient>
</defs>
</svg>
