<svg width="112" height="77" viewBox="0 0 112 77" fill="none" xmlns="http://www.w3.org/2000/svg">
<path d="M11.9433 2.55415C12.2011 2.29635 12.6651 2.14168 13.1291 2.14168H14.0572V0.440221H2.81728V2.14168H3.64223C4.20938 2.14168 4.5703 2.29635 4.87965 2.55415C5.39525 3.06975 5.60148 3.99781 5.60148 5.44147V27.6635C5.60148 29.1588 5.39525 30.0868 4.87965 30.5509C4.5703 30.8602 4.15782 31.0149 3.53911 31.0149H2.81728V32.6648H14.0572V31.0149H13.1807C12.6136 31.0149 12.2011 30.8602 11.9433 30.6024C11.4277 30.0868 11.2215 29.1588 11.2215 27.6635V15.7533H26.8439V27.6635C26.8439 29.1588 26.5861 30.0868 26.1221 30.6024C25.8127 30.8602 25.4003 31.0149 24.8847 31.0149H24.0082V32.6648H35.2481V31.0149H34.4231C33.856 31.0149 33.4435 30.8602 33.1857 30.6024C32.6701 30.0868 32.4639 29.1588 32.4639 27.6635V5.49303C32.4639 3.99781 32.6701 3.06975 33.1857 2.55415C33.4951 2.29635 33.856 2.14168 34.4231 2.14168H35.2481V0.440221H24.0082V2.14168H24.8847C25.4003 2.14168 25.8127 2.29635 26.1221 2.55415C26.5861 3.06975 26.8439 3.99781 26.8439 5.44147V13.6394H11.2215V5.49303C11.2215 3.99781 11.4277 3.06975 11.9433 2.55415ZM47.984 30.5509C47.6747 30.8602 47.2622 31.0149 46.7466 31.0149H45.9217V32.6648H69.3296V25.7043H67.6281L67.4735 26.0136C66.6485 27.8182 66.1329 28.54 65.8751 28.7978C64.6893 30.0353 62.9878 30.6024 60.3583 30.6024H54.3258V16.2689H58.0897C61.2348 16.2689 62.6785 16.9908 63.4518 18.8469L63.7612 19.4656H65.4627V11.3708H63.7612L63.5034 11.9895C62.73 13.5878 61.1832 14.2066 58.0897 14.2066H54.3258V2.55415H59.3787C63.194 2.55415 65.308 3.74001 66.4423 6.47266L66.6485 6.88514H68.2984V0.440221H45.9217V2.14168H46.7466C47.3138 2.14168 47.6747 2.29635 47.984 2.55415C48.4996 3.06975 48.7059 3.99781 48.7059 5.44147V27.6635C48.7059 29.1588 48.4996 30.0868 47.984 30.5509ZM82.6295 30.5509C82.3201 30.8602 81.9077 31.0149 81.3405 31.0149C81.3405 31.0149 81.289 31.0149 81.2374 31.0149H80.5671V32.6648H91.8071V31.0149H90.9306C90.3634 31.0149 90.0025 30.8602 89.6931 30.6024C89.1775 30.0868 88.9713 29.1588 88.9713 27.6635V18.1251H91.7039C91.8071 18.1766 91.9102 18.2282 91.9617 18.2797L92.0649 18.3829C92.1164 18.3829 92.168 18.4344 92.2195 18.4344C92.6836 18.6922 93.1476 19.0016 93.5085 19.3625C94.4881 20.1874 95.3647 21.2702 96.0349 22.5076C96.499 23.3841 96.9114 24.2091 97.4786 25.2918V25.3949C98.5098 27.4573 99.4378 29.2619 100.675 30.5509C102.067 31.9945 103.769 32.6648 105.986 32.6648H106.708C107.584 32.6648 109.801 32.6648 109.801 32.6648H110.368V31.0149L109.75 30.9118C108.048 30.6024 106.605 28.9525 105.78 27.9213L105.677 27.8182C104.542 26.4777 103.511 25.0856 102.583 23.6935L101.758 22.5076L101.139 21.6827C100.882 21.3733 100.675 21.0639 100.417 20.7546C99.3863 19.5172 98.3035 18.5891 97.1177 17.8673C99.8503 17.4548 102.067 16.5267 103.614 15.1346C105.367 13.5878 106.295 11.5255 106.295 9.05063C106.295 6.36954 105.264 4.15249 103.253 2.65727C101.242 1.21361 98.4067 0.440221 94.8491 0.440221H80.5671V2.14168H81.3921C81.9077 2.14168 82.3201 2.29635 82.6295 2.60571C83.1451 3.06975 83.3513 3.99781 83.3513 5.49303V27.6635C83.3513 29.1588 83.1451 30.0868 82.6295 30.5509ZM94.8491 2.55415C98.5098 2.55415 100.469 4.82276 100.469 9.05063C100.469 13.4332 97.8911 16.0627 93.6116 16.0627H88.9713V2.55415H94.8491ZM22.7846 75.7164H24.2283L30.3639 57.1034C30.7763 55.8145 31.9106 54.8348 32.9934 54.8348H33.7668V53.1334H26.5485V54.8348H27.0641C27.1156 54.8348 27.1672 54.8348 27.2187 54.8348C27.2703 54.8348 27.3219 54.8348 27.3734 54.8348C27.425 54.8348 27.5281 54.8348 27.6312 54.8348C27.7859 54.8348 27.9406 54.9379 27.9921 55.0411C28.3015 55.4535 28.2499 56.33 27.9406 57.3612C27.8375 57.619 25.9813 63.2906 24.8986 66.4872L20.3614 53.1334H17.3709L12.3697 67.3637C11.4416 64.1155 9.58545 57.3097 9.43078 56.8972C9.32766 56.1238 9.32766 55.402 9.48233 55.1957C9.53389 55.0926 9.68857 54.8348 10.462 54.8348H11.3385V53.1334H0.665691V54.8348H1.43908C2.36715 54.8348 2.9343 55.2473 3.50145 56.33C3.55301 56.3816 3.70769 56.8456 3.86237 57.3612L9.2761 75.4586L9.37922 75.7164H11.6994L17.474 59.5267L22.63 75.2008L22.7846 75.7164ZM52.3112 56.0723L52.2597 56.0207C50.2488 53.8552 47.8255 52.7725 45.0413 52.7725C42.2571 52.7725 39.8339 53.7521 37.823 55.6598C35.5029 57.9284 34.3686 60.8157 34.3686 64.3217C34.3686 67.7762 35.3482 70.612 37.359 72.7775C39.3698 74.943 41.8962 76.0773 44.8351 76.0773C47.7224 76.0773 50.2488 74.943 52.3112 72.7259C54.322 70.4573 55.4048 67.6215 55.4048 64.2702C55.4048 61.0219 54.3736 58.2377 52.3112 56.0723ZM48.5989 71.7463C47.6193 73.1899 46.3819 73.8602 44.7835 73.8602C43.3914 73.8602 42.2571 73.2415 41.3806 72.0041C40.1432 70.1995 39.5245 67.6215 39.5245 64.2702C39.5245 60.9704 40.1432 58.4955 41.2775 56.7941C42.154 55.5567 43.3399 54.9379 44.7835 54.9379C46.3819 54.9379 47.5678 55.5567 48.4443 56.8456C49.6301 58.5471 50.1973 61.1766 50.1973 64.7342C50.1973 67.9309 49.6817 70.3026 48.5989 71.7463ZM63.9664 53.1334L57.7278 54.2161V55.9176H58.4496H58.5011C59.0167 55.866 59.3776 55.9176 59.6354 56.2269C60.0995 56.7425 60.3057 57.6706 60.3057 59.1658C60.3057 59.2689 60.3057 70.7667 60.2542 71.0245C60.2542 72.3134 60.0479 73.1899 59.6354 73.6024C59.3776 73.9118 59.0683 74.0149 58.6043 74.0149C58.5527 74.0149 58.5527 74.0149 58.5011 74.0149H57.7793V75.7164H67.8849V74.0149H67.0084C66.596 74.0149 66.2866 73.8602 66.0288 73.6024C65.6163 73.1384 65.3585 72.1588 65.3585 70.6635C65.3585 70.6635 65.4101 63.8577 65.4101 59.0111C66.4928 57.8253 67.3178 57.1034 68.0396 56.7425C68.2974 56.5878 68.6068 56.5363 68.9677 56.5363C69.3802 56.5363 69.8442 56.5878 70.3082 56.7941C70.5145 56.8972 70.7723 57.0003 71.0301 57.155C71.5972 57.4644 72.1644 57.8253 72.7831 57.8768C72.8346 57.8768 72.9378 57.8768 72.9893 57.8768C73.608 57.8768 74.2267 57.5675 74.6392 57.0003C75.0001 56.4847 75.2064 55.8145 75.1548 55.1957C75.1548 54.577 74.897 54.0614 74.5361 53.7005C74.1752 53.3396 73.5565 53.0303 73.0409 52.8756C72.68 52.7725 72.3706 52.7725 72.0612 52.7725H72.0097C69.638 52.824 67.06 54.3192 65.4101 55.866V53.1334H63.9664ZM82.9451 43.8011L77.1705 44.7808L76.6033 44.8839V46.5853H77.5314C77.9438 46.5853 78.2532 46.6369 78.511 46.9463C78.975 47.4103 79.1813 48.3384 79.1813 49.8336V70.6635C79.1813 72.1588 78.975 73.1384 78.511 73.6024C78.3048 73.8602 77.9954 74.0149 77.5314 74.0149H76.7064V75.6648H86.7605V74.0149H85.9355C85.4715 74.0149 85.1621 73.8602 84.9559 73.6024C84.4919 73.1384 84.2856 72.1588 84.2856 70.6635V43.8011H82.9451ZM98.8999 52.7209C93.1252 52.7209 89.1036 57.2581 88.8974 63.9608C88.8458 64.2186 88.8458 64.4764 88.8974 64.7858C89.1036 71.4369 93.2284 76.0773 98.8999 76.0773C100.859 76.0773 102.767 75.3039 104.365 73.8087L105.396 75.6648L111.377 75.7164V74.0149H110.552C109.83 74.0149 109.16 73.7571 108.954 72.2103V43.8011H107.613L101.272 44.8839V46.5853H102.148C102.612 46.5853 102.922 46.6369 103.179 46.9463C103.643 47.4103 103.85 48.3899 103.85 49.8336V54.4739C102.818 53.7005 101.065 52.7209 98.8999 52.7209ZM103.85 71.3854C103.643 71.6432 103.386 71.901 103.231 72.0041C102.715 72.4166 102.148 72.7259 101.529 72.9322C100.859 73.1384 100.189 73.2415 99.467 73.2415C98.3843 73.2415 96.8375 72.9322 95.8579 71.6432C95.497 71.1276 95.1876 70.4573 94.8783 69.6839C94.6205 68.9105 94.4142 68.0856 94.3111 67.1575C94.1049 65.0436 94.1049 63.0328 94.4142 61.1251C94.5689 60.197 94.7751 59.4236 95.0329 58.7533C95.2907 57.9799 95.6517 57.4128 96.0641 56.8972C96.425 56.4847 96.8375 56.1754 97.3016 55.9176C97.9203 55.6598 98.6421 55.5051 99.5186 55.5051C101.839 55.5051 103.334 56.7941 103.85 57.3097V71.3854Z" fill="url(#paint0_linear_14_19)"/>
<defs>
<linearGradient id="paint0_linear_14_19" x1="85.2737" y1="37.6169" x2="-14.5253" y2="37.0083" gradientUnits="userSpaceOnUse">
<stop stop-color="#755F82"/>
<stop offset="1" stop-color="#A79DAD"/>
</linearGradient>
</defs>
</svg>
