<svg width="369" height="58" viewBox="0 0 369 58" fill="none" xmlns="http://www.w3.org/2000/svg">
<path d="M16.5626 3.76792C17.0184 3.31216 17.8387 3.03871 18.6591 3.03871H20.2998V0.0307331H0.4289V3.03871H1.88732C2.88998 3.03871 3.52803 3.31216 4.07494 3.76792C4.98645 4.67943 5.35105 6.32015 5.35105 8.87238V48.1585C5.35105 50.8018 4.98645 52.4425 4.07494 53.2629C3.52803 53.8098 2.79883 54.0833 1.70501 54.0833H0.4289V57.0001H20.2998V54.0833H18.7502C17.7476 54.0833 17.0184 53.8098 16.5626 53.3541C15.6511 52.4425 15.2865 50.8018 15.2865 48.1585V27.1026H42.9053V48.1585C42.9053 50.8018 42.4495 52.4425 41.6291 53.3541C41.0822 53.8098 40.353 54.0833 39.4415 54.0833H37.892V57.0001H57.7629V54.0833H56.3045C55.3018 54.0833 54.5726 53.8098 54.1168 53.3541C53.2053 52.4425 52.8407 50.8018 52.8407 48.1585V8.96353C52.8407 6.32015 53.2053 4.67943 54.1168 3.76792C54.6637 3.31216 55.3018 3.03871 56.3045 3.03871H57.7629V0.0307331H37.892V3.03871H39.4415C40.353 3.03871 41.0822 3.31216 41.6291 3.76792C42.4495 4.67943 42.9053 6.32015 42.9053 8.87238V23.3654H15.2865V8.96353C15.2865 6.32015 15.6511 4.67943 16.5626 3.76792ZM64.7829 53.2629C64.236 53.8098 63.5068 54.0833 62.5953 54.0833H61.1369V57.0001H102.519V44.6947H99.5114L99.238 45.2416C97.7796 48.4319 96.8681 49.708 96.4123 50.1638C94.3158 52.3514 91.3079 53.3541 86.6592 53.3541H75.9945V28.0141H82.6485C88.2087 28.0141 90.7609 29.2902 92.1282 32.5716L92.6751 33.6654H95.6831V19.3547H92.6751L92.2194 20.4486C90.8521 23.2742 88.1176 24.368 82.6485 24.368H75.9945V3.76792H84.9273C91.6725 3.76792 95.4096 5.86439 97.415 10.6954L97.7796 11.4246H100.696V0.0307331H61.1369V3.03871H62.5953C63.598 3.03871 64.236 3.31216 64.7829 3.76792C65.6944 4.67943 66.059 6.32015 66.059 8.87238V48.1585C66.059 50.8018 65.6944 52.4425 64.7829 53.2629ZM110.536 53.2629C109.99 53.8098 109.26 54.0833 108.258 54.0833C108.258 54.0833 108.167 54.0833 108.075 54.0833H106.89V57.0001H126.761V54.0833H125.212C124.209 54.0833 123.571 53.8098 123.024 53.3541C122.113 52.4425 121.748 50.8018 121.748 48.1585V31.2955H126.579C126.761 31.3867 126.944 31.4778 127.035 31.569L127.217 31.7513C127.308 31.7513 127.399 31.8424 127.491 31.8424C128.311 32.2982 129.131 32.8451 129.769 33.4831C131.501 34.9416 133.051 36.8557 134.236 39.0434C135.056 40.5929 135.785 42.0513 136.788 43.9655V44.1478C138.611 47.7938 140.252 50.9841 142.439 53.2629C144.9 55.8151 147.908 57.0001 151.828 57.0001H153.104C154.654 57.0001 158.573 57.0001 158.573 57.0001H159.576V54.0833L158.482 53.901C155.474 53.3541 152.922 50.4372 151.463 48.6142L151.281 48.4319C149.276 46.062 147.453 43.6009 145.812 41.1398L144.353 39.0434L143.26 37.5849C142.804 37.038 142.439 36.4911 141.984 35.9442C140.161 33.7566 138.246 32.1159 136.15 30.8398C140.981 30.1106 144.9 28.4698 147.635 26.0088C150.734 23.2742 152.375 19.6282 152.375 15.2529C152.375 10.5131 150.552 6.5936 146.997 3.95022C143.442 1.398 138.429 0.0307331 132.139 0.0307331H106.89V3.03871H108.349C109.26 3.03871 109.99 3.31216 110.536 3.85907C111.448 4.67943 111.813 6.32015 111.813 8.96353V48.1585C111.813 50.8018 111.448 52.4425 110.536 53.2629ZM132.139 3.76792C138.611 3.76792 142.075 7.77856 142.075 15.2529C142.075 23.0008 137.517 27.6495 129.952 27.6495H121.748V3.76792H132.139ZM195.904 57.0913H198.456L209.303 24.1857C210.032 21.907 212.037 20.1751 213.952 20.1751H215.319V17.1671H202.558V20.1751H203.469C203.56 20.1751 203.651 20.1751 203.743 20.1751C203.834 20.1751 203.925 20.1751 204.016 20.1751C204.107 20.1751 204.29 20.1751 204.472 20.1751C204.745 20.1751 205.019 20.3574 205.11 20.5397C205.657 21.2689 205.566 22.8185 205.019 24.6415C204.836 25.0973 201.555 35.1239 199.641 40.7752L191.62 17.1671H186.333L177.491 42.3248C175.85 36.5823 172.569 24.5503 172.296 23.8211C172.113 22.4539 172.113 21.1778 172.387 20.8132C172.478 20.6309 172.751 20.1751 174.119 20.1751H175.668V17.1671H156.8V20.1751H158.167C159.808 20.1751 160.81 20.9043 161.813 22.8185C161.904 22.9096 162.178 23.73 162.451 24.6415L172.022 56.6355L172.204 57.0913H176.306L186.515 28.4698L195.63 56.1797L195.904 57.0913ZM248.103 22.3627L248.012 22.2716C244.457 18.4432 240.173 16.5291 235.251 16.5291C230.329 16.5291 226.045 18.2609 222.49 21.6335C218.388 25.6442 216.383 30.7486 216.383 36.9469C216.383 43.054 218.115 48.0673 221.669 51.8956C225.224 55.724 229.691 57.7293 234.886 57.7293C239.991 57.7293 244.457 55.724 248.103 51.8045C251.658 47.7938 253.572 42.7805 253.572 36.8557C253.572 31.1132 251.749 26.1911 248.103 22.3627ZM241.54 50.0726C239.808 52.6249 237.621 53.8098 234.795 53.8098C232.334 53.8098 230.329 52.716 228.779 50.5284C226.592 47.3381 225.498 42.7805 225.498 36.8557C225.498 31.0221 226.592 26.6468 228.597 23.6388C230.146 21.4512 232.243 20.3574 234.795 20.3574C237.621 20.3574 239.717 21.4512 241.267 23.73C243.363 26.738 244.366 31.3867 244.366 37.6761C244.366 43.3275 243.455 47.5204 241.54 50.0726ZM268.708 17.1671L257.679 19.0813V22.0893H258.955H259.046C259.958 21.9981 260.596 22.0893 261.052 22.6362C261.872 23.5477 262.237 25.1884 262.237 27.8318C262.237 28.0141 262.237 48.3408 262.145 48.7965C262.145 51.0753 261.781 52.6249 261.052 53.3541C260.596 53.901 260.049 54.0833 259.229 54.0833C259.137 54.0833 259.137 54.0833 259.046 54.0833H257.77V57.0913H275.636V54.0833H274.086C273.357 54.0833 272.81 53.8098 272.354 53.3541C271.625 52.5337 271.169 50.8018 271.169 48.1585C271.169 48.1585 271.261 36.1265 271.261 27.5583C273.175 25.4619 274.633 24.1857 275.909 23.5477C276.365 23.2742 276.912 23.1831 277.55 23.1831C278.279 23.1831 279.1 23.2742 279.92 23.6388C280.285 23.8211 280.74 24.0034 281.196 24.2769C282.199 24.8238 283.201 25.4619 284.295 25.553C284.386 25.553 284.569 25.553 284.66 25.553C285.754 25.553 286.847 25.0061 287.577 24.0034C288.215 23.0919 288.579 21.907 288.488 20.8132C288.488 19.7193 288.032 18.8078 287.394 18.1698C286.756 17.5317 285.662 16.9848 284.751 16.7114C284.113 16.5291 283.566 16.5291 283.019 16.5291H282.928C278.735 16.6202 274.177 19.2636 271.261 21.9981V17.1671H268.708ZM302.26 0.668787L292.052 2.40066L291.049 2.58296V5.59094H292.69C293.419 5.59094 293.966 5.68209 294.421 6.229C295.242 7.04936 295.606 8.69007 295.606 11.3335V48.1585C295.606 50.8018 295.242 52.5337 294.421 53.3541C294.057 53.8098 293.51 54.0833 292.69 54.0833H291.231V57.0001H309.006V54.0833H307.547C306.727 54.0833 306.18 53.8098 305.815 53.3541C304.995 52.5337 304.63 50.8018 304.63 48.1585V0.668787H302.26ZM330.467 16.4379C320.258 16.4379 313.148 24.4592 312.783 36.3088C312.692 36.7646 312.692 37.2203 312.783 37.7672C313.148 49.5257 320.44 57.7293 330.467 57.7293C333.93 57.7293 337.303 56.362 340.129 53.7187L341.952 57.0001L352.525 57.0913V54.0833H351.067C349.791 54.0833 348.606 53.6275 348.241 50.893V0.668787H345.871L334.66 2.58296V5.59094H336.209C337.03 5.59094 337.576 5.68209 338.032 6.229C338.853 7.04936 339.217 8.78122 339.217 11.3335V19.537C337.394 18.1698 334.295 16.4379 330.467 16.4379ZM339.217 49.4346C338.853 49.8903 338.397 50.3461 338.123 50.5284C337.212 51.2576 336.209 51.8045 335.115 52.1691C333.93 52.5337 332.745 52.716 331.469 52.716C329.555 52.716 326.821 52.1691 325.089 49.8903C324.451 48.9788 323.904 47.7938 323.357 46.4266C322.901 45.0593 322.537 43.6009 322.354 41.9602C321.99 38.223 321.99 34.6681 322.537 31.2955C322.81 29.6548 323.175 28.2875 323.63 27.1026C324.086 25.7353 324.724 24.7327 325.453 23.8211C326.091 23.0919 326.821 22.545 327.641 22.0893C328.735 21.6335 330.011 21.3601 331.56 21.3601C335.662 21.3601 338.306 23.6388 339.217 24.5503V49.4346ZM363.241 57.7293C366.158 57.7293 368.528 55.3594 368.528 52.4425C368.528 49.5257 366.158 47.1558 363.241 47.1558C360.324 47.1558 358.046 49.5257 358.046 52.4425C358.046 55.3594 360.324 57.7293 363.241 57.7293Z" fill="url(#paint0_linear_48_271)"/>
<defs>
<linearGradient id="paint0_linear_48_271" x1="298.567" y1="26.7035" x2="-73" y2="26.7035" gradientUnits="userSpaceOnUse">
<stop stop-color="#725E7D"/>
<stop offset="1" stop-color="#A797B0"/>
</linearGradient>
</defs>
</svg>
