<svg width="369" height="58" viewBox="0 0 369 58" fill="none" xmlns="http://www.w3.org/2000/svg">
<path d="M16.5621 3.76788C17.0179 3.31213 17.8383 3.03868 18.6586 3.03868H20.2993V0.030695H0.428412V3.03868H1.88683C2.88949 3.03868 3.52755 3.31213 4.07445 3.76788C4.98596 4.6794 5.35057 6.32011 5.35057 8.87234V48.1584C5.35057 50.8018 4.98596 52.4425 4.07445 53.2629C3.52755 53.8098 2.79834 54.0832 1.70453 54.0832H0.428412V57.0001H20.2993V54.0832H18.7498C17.7471 54.0832 17.0179 53.8098 16.5621 53.354C15.6506 52.4425 15.286 50.8018 15.286 48.1584V27.1025H42.9048V48.1584C42.9048 50.8018 42.449 52.4425 41.6287 53.354C41.0818 53.8098 40.3525 54.0832 39.441 54.0832H37.8915V57.0001H57.7624V54.0832H56.304C55.3013 54.0832 54.5721 53.8098 54.1163 53.354C53.2048 52.4425 52.8402 50.8018 52.8402 48.1584V8.96349C52.8402 6.32011 53.2048 4.6794 54.1163 3.76788C54.6633 3.31213 55.3013 3.03868 56.304 3.03868H57.7624V0.030695H37.8915V3.03868H39.441C40.3525 3.03868 41.0818 3.31213 41.6287 3.76788C42.449 4.6794 42.9048 6.32011 42.9048 8.87234V23.3653H15.286V8.96349C15.286 6.32011 15.6506 4.6794 16.5621 3.76788ZM64.7824 53.2629C64.2355 53.8098 63.5063 54.0832 62.5948 54.0832H61.1364V57.0001H102.519V44.6947H99.511L99.2375 45.2416C97.7791 48.4319 96.8676 49.708 96.4118 50.1637C94.3153 52.3514 91.3074 53.354 86.6587 53.354H75.994V28.014H82.648C88.2082 28.014 90.7605 29.2902 92.1277 32.5716L92.6746 33.6654H95.6826V19.3547H92.6746L92.2189 20.4485C90.8516 23.2742 88.1171 24.368 82.648 24.368H75.994V3.76788H84.9268C91.672 3.76788 95.4092 5.86435 97.4145 10.6954L97.7791 11.4246H100.696V0.030695H61.1364V3.03868H62.5948C63.5975 3.03868 64.2355 3.31213 64.7824 3.76788C65.6939 4.6794 66.0585 6.32011 66.0585 8.87234V48.1584C66.0585 50.8018 65.6939 52.4425 64.7824 53.2629ZM110.536 53.2629C109.989 53.8098 109.26 54.0832 108.257 54.0832C108.257 54.0832 108.166 54.0832 108.075 54.0832H106.89V57.0001H126.761V54.0832H125.211C124.209 54.0832 123.571 53.8098 123.024 53.354C122.112 52.4425 121.748 50.8018 121.748 48.1584V31.2955H126.579C126.761 31.3866 126.943 31.4778 127.034 31.5689L127.217 31.7512C127.308 31.7512 127.399 31.8424 127.49 31.8424C128.31 32.2981 129.131 32.845 129.769 33.4831C131.501 34.9415 133.05 36.8557 134.235 39.0433C135.056 40.5929 135.785 42.0513 136.787 43.9655V44.1478C138.61 47.7938 140.251 50.9841 142.439 53.2629C144.9 55.8151 147.908 57.0001 151.827 57.0001H153.103C154.653 57.0001 158.573 57.0001 158.573 57.0001H159.575V54.0832L158.481 53.9009C155.473 53.354 152.921 50.4372 151.463 48.6142L151.28 48.4319C149.275 46.0619 147.452 43.6009 145.811 41.1398L144.353 39.0433L143.259 37.5849C142.803 37.038 142.439 36.4911 141.983 35.9442C140.16 33.7566 138.246 32.1158 136.149 30.8397C140.98 30.1105 144.9 28.4698 147.634 26.0087C150.734 23.2742 152.374 19.6282 152.374 15.2529C152.374 10.5131 150.551 6.59356 146.996 3.95019C143.441 1.39796 138.428 0.030695 132.139 0.030695H106.89V3.03868H108.348C109.26 3.03868 109.989 3.31213 110.536 3.85904C111.447 4.6794 111.812 6.32011 111.812 8.96349V48.1584C111.812 50.8018 111.447 52.4425 110.536 53.2629ZM132.139 3.76788C138.61 3.76788 142.074 7.77853 142.074 15.2529C142.074 23.0007 137.517 27.6494 129.951 27.6494H121.748V3.76788H132.139ZM195.903 57.0912H198.455L209.302 24.1857C210.032 21.9069 212.037 20.1751 213.951 20.1751H215.318V17.1671H202.557V20.1751H203.469C203.56 20.1751 203.651 20.1751 203.742 20.1751C203.833 20.1751 203.924 20.1751 204.016 20.1751C204.107 20.1751 204.289 20.1751 204.471 20.1751C204.745 20.1751 205.018 20.3574 205.109 20.5397C205.656 21.2689 205.565 22.8184 205.018 24.6415C204.836 25.0972 201.554 35.1238 199.64 40.7752L191.619 17.1671H186.332L177.491 42.3248C175.85 36.5822 172.568 24.5503 172.295 23.8211C172.113 22.4538 172.113 21.1777 172.386 20.8131C172.477 20.6308 172.751 20.1751 174.118 20.1751H175.668V17.1671H156.799V20.1751H158.167C159.807 20.1751 160.81 20.9043 161.813 22.8184C161.904 22.9096 162.177 23.73 162.451 24.6415L172.022 56.6355L172.204 57.0912H176.306L186.515 28.4698L195.63 56.1797L195.903 57.0912ZM248.103 22.3627L248.012 22.2715C244.457 18.4432 240.173 16.529 235.25 16.529C230.328 16.529 226.044 18.2609 222.489 21.6335C218.388 25.6441 216.382 30.7486 216.382 36.9468C216.382 43.054 218.114 48.0673 221.669 51.8956C225.224 55.7239 229.69 57.7293 234.886 57.7293C239.99 57.7293 244.457 55.7239 248.103 51.8045C251.658 47.7938 253.572 42.7805 253.572 36.8557C253.572 31.1132 251.749 26.191 248.103 22.3627ZM241.54 50.0726C239.808 52.6248 237.62 53.8098 234.795 53.8098C232.334 53.8098 230.328 52.716 228.779 50.5283C226.591 47.3381 225.497 42.7805 225.497 36.8557C225.497 31.022 226.591 26.6468 228.596 23.6388C230.146 21.4512 232.242 20.3574 234.795 20.3574C237.62 20.3574 239.717 21.4512 241.266 23.73C243.363 26.7379 244.366 31.3866 244.366 37.6761C244.366 43.3274 243.454 47.5204 241.54 50.0726ZM268.708 17.1671L257.679 19.0813V22.0892H258.955H259.046C259.957 21.9981 260.595 22.0892 261.051 22.6361C261.872 23.5476 262.236 25.1884 262.236 27.8317C262.236 28.014 262.236 48.3407 262.145 48.7965C262.145 51.0752 261.78 52.6248 261.051 53.354C260.595 53.9009 260.048 54.0832 259.228 54.0832C259.137 54.0832 259.137 54.0832 259.046 54.0832H257.77V57.0912H275.635V54.0832H274.086C273.357 54.0832 272.81 53.8098 272.354 53.354C271.625 52.5337 271.169 50.8018 271.169 48.1584C271.169 48.1584 271.26 36.1265 271.26 27.5583C273.174 25.4618 274.633 24.1857 275.909 23.5476C276.365 23.2742 276.911 23.183 277.549 23.183C278.279 23.183 279.099 23.2742 279.919 23.6388C280.284 23.8211 280.74 24.0034 281.196 24.2769C282.198 24.8238 283.201 25.4618 284.295 25.553C284.386 25.553 284.568 25.553 284.659 25.553C285.753 25.553 286.847 25.0061 287.576 24.0034C288.214 23.0919 288.579 21.9069 288.488 20.8131C288.488 19.7193 288.032 18.8078 287.394 18.1697C286.756 17.5317 285.662 16.9848 284.75 16.7113C284.112 16.529 283.565 16.529 283.019 16.529H282.927C278.734 16.6202 274.177 19.2635 271.26 21.9981V17.1671H268.708ZM302.26 0.668749L292.051 2.40062L291.048 2.58292V5.5909H292.689C293.418 5.5909 293.965 5.68205 294.421 6.22896C295.241 7.04932 295.606 8.69004 295.606 11.3334V48.1584C295.606 50.8018 295.241 52.5337 294.421 53.354C294.056 53.8098 293.509 54.0832 292.689 54.0832H291.231V57.0001H309.005V54.0832H307.547C306.726 54.0832 306.179 53.8098 305.815 53.354C304.994 52.5337 304.63 50.8018 304.63 48.1584V0.668749H302.26ZM330.466 16.4379C320.257 16.4379 313.148 24.4592 312.783 36.3088C312.692 36.7645 312.692 37.2203 312.783 37.7672C313.148 49.5257 320.44 57.7293 330.466 57.7293C333.93 57.7293 337.303 56.362 340.128 53.7186L341.951 57.0001L352.525 57.0912V54.0832H351.066C349.79 54.0832 348.605 53.6275 348.241 50.8929V0.668749H345.871L334.659 2.58292V5.5909H336.209C337.029 5.5909 337.576 5.68205 338.032 6.22896C338.852 7.04932 339.217 8.78119 339.217 11.3334V19.537C337.394 18.1697 334.295 16.4379 330.466 16.4379ZM339.217 49.4345C338.852 49.8903 338.396 50.346 338.123 50.5283C337.211 51.2575 336.209 51.8045 335.115 52.1691C333.93 52.5337 332.745 52.716 331.469 52.716C329.555 52.716 326.82 52.1691 325.088 49.8903C324.45 48.9788 323.903 47.7938 323.356 46.4265C322.901 45.0593 322.536 43.6009 322.354 41.9601C321.989 38.223 321.989 34.6681 322.536 31.2955C322.81 29.6548 323.174 28.2875 323.63 27.1025C324.086 25.7353 324.724 24.7326 325.453 23.8211C326.091 23.0919 326.82 22.545 327.641 22.0892C328.734 21.6335 330.01 21.36 331.56 21.36C335.662 21.36 338.305 23.6388 339.217 24.5503V49.4345ZM363.241 57.7293C366.158 57.7293 368.527 55.3593 368.527 52.4425C368.527 49.5257 366.158 47.1558 363.241 47.1558C360.324 47.1558 358.045 49.5257 358.045 52.4425C358.045 55.3593 360.324 57.7293 363.241 57.7293Z" fill="url(#paint0_linear_20_1167)"/>
<defs>
<linearGradient id="paint0_linear_20_1167" x1="298.566" y1="26.7035" x2="-73.0005" y2="26.7035" gradientUnits="userSpaceOnUse">
<stop stop-color="#725E7D"/>
<stop offset="1" stop-color="#A797B0"/>
</linearGradient>
</defs>
</svg>
