<svg width="369" height="58" viewBox="0 0 369 58" fill="none" xmlns="http://www.w3.org/2000/svg">
<path d="M16.5626 3.76782C17.0184 3.31207 17.8387 3.03862 18.6591 3.03862H20.2998V0.0306339H0.4289V3.03862H1.88732C2.88998 3.03862 3.52803 3.31207 4.07494 3.76782C4.98645 4.67933 5.35105 6.32005 5.35105 8.87228V48.1584C5.35105 50.8017 4.98645 52.4425 4.07494 53.2628C3.52803 53.8097 2.79883 54.0832 1.70501 54.0832H0.4289V57H20.2998V54.0832H18.7502C17.7476 54.0832 17.0184 53.8097 16.5626 53.354C15.6511 52.4425 15.2865 50.8017 15.2865 48.1584V27.1025H42.9053V48.1584C42.9053 50.8017 42.4495 52.4425 41.6291 53.354C41.0822 53.8097 40.353 54.0832 39.4415 54.0832H37.892V57H57.7629V54.0832H56.3045C55.3018 54.0832 54.5726 53.8097 54.1168 53.354C53.2053 52.4425 52.8407 50.8017 52.8407 48.1584V8.96343C52.8407 6.32005 53.2053 4.67933 54.1168 3.76782C54.6637 3.31207 55.3018 3.03862 56.3045 3.03862H57.7629V0.0306339H37.892V3.03862H39.4415C40.353 3.03862 41.0822 3.31207 41.6291 3.76782C42.4495 4.67933 42.9053 6.32005 42.9053 8.87228V23.3653H15.2865V8.96343C15.2865 6.32005 15.6511 4.67933 16.5626 3.76782ZM64.7829 53.2628C64.236 53.8097 63.5068 54.0832 62.5953 54.0832H61.1369V57H102.519V44.6946H99.5114L99.238 45.2415C97.7796 48.4318 96.8681 49.7079 96.4123 50.1637C94.3158 52.3513 91.3079 53.354 86.6592 53.354H75.9945V28.014H82.6485C88.2087 28.014 90.7609 29.2901 92.1282 32.5715L92.6751 33.6653H95.6831V19.3546H92.6751L92.2194 20.4485C90.8521 23.2741 88.1176 24.3679 82.6485 24.3679H75.9945V3.76782H84.9273C91.6725 3.76782 95.4096 5.86429 97.415 10.6953L97.7796 11.4245H100.696V0.0306339H61.1369V3.03862H62.5953C63.598 3.03862 64.236 3.31207 64.7829 3.76782C65.6944 4.67933 66.059 6.32005 66.059 8.87228V48.1584C66.059 50.8017 65.6944 52.4425 64.7829 53.2628ZM110.536 53.2628C109.99 53.8097 109.26 54.0832 108.258 54.0832C108.258 54.0832 108.167 54.0832 108.075 54.0832H106.89V57H126.761V54.0832H125.212C124.209 54.0832 123.571 53.8097 123.024 53.354C122.113 52.4425 121.748 50.8017 121.748 48.1584V31.2954H126.579C126.761 31.3866 126.944 31.4777 127.035 31.5689L127.217 31.7512C127.308 31.7512 127.399 31.8423 127.491 31.8423C128.311 32.2981 129.131 32.845 129.769 33.483C131.501 34.9415 133.051 36.8556 134.236 39.0433C135.056 40.5928 135.785 42.0512 136.788 43.9654V44.1477C138.611 47.7938 140.252 50.984 142.439 53.2628C144.9 55.815 147.908 57 151.828 57H153.104C154.654 57 158.573 57 158.573 57H159.576V54.0832L158.482 53.9009C155.474 53.354 152.922 50.4371 151.463 48.6141L151.281 48.4318C149.276 46.0619 147.453 43.6008 145.812 41.1397L144.353 39.0433L143.26 37.5848C142.804 37.0379 142.439 36.491 141.984 35.9441C140.161 33.7565 138.246 32.1158 136.15 30.8397C140.981 30.1105 144.9 28.4697 147.635 26.0087C150.734 23.2741 152.375 19.6281 152.375 15.2528C152.375 10.513 150.552 6.5935 146.997 3.95012C143.442 1.3979 138.429 0.0306339 132.139 0.0306339H106.89V3.03862H108.349C109.26 3.03862 109.99 3.31207 110.536 3.85897C111.448 4.67933 111.813 6.32005 111.813 8.96343V48.1584C111.813 50.8017 111.448 52.4425 110.536 53.2628ZM132.139 3.76782C138.611 3.76782 142.075 7.77847 142.075 15.2528C142.075 23.0007 137.517 27.6494 129.952 27.6494H121.748V3.76782H132.139ZM195.904 57.0912H198.456L209.303 24.1856C210.032 21.9069 212.037 20.175 213.952 20.175H215.319V17.167H202.558V20.175H203.469C203.56 20.175 203.651 20.175 203.743 20.175C203.834 20.175 203.925 20.175 204.016 20.175C204.107 20.175 204.29 20.175 204.472 20.175C204.745 20.175 205.019 20.3573 205.11 20.5396C205.657 21.2688 205.566 22.8184 205.019 24.6414C204.836 25.0972 201.555 35.1238 199.641 40.7751L191.62 17.167H186.333L177.491 42.3247C175.85 36.5822 172.569 24.5502 172.296 23.821C172.113 22.4538 172.113 21.1777 172.387 20.8131C172.478 20.6308 172.751 20.175 174.119 20.175H175.668V17.167H156.8V20.175H158.167C159.808 20.175 160.81 20.9042 161.813 22.8184C161.904 22.9095 162.178 23.7299 162.451 24.6414L172.022 56.6354L172.204 57.0912H176.306L186.515 28.4697L195.63 56.1796L195.904 57.0912ZM248.103 22.3626L248.012 22.2715C244.457 18.4431 240.173 16.529 235.251 16.529C230.329 16.529 226.045 18.2608 222.49 21.6334C218.388 25.6441 216.383 30.7485 216.383 36.9468C216.383 43.0539 218.115 48.0672 221.669 51.8955C225.224 55.7239 229.691 57.7292 234.886 57.7292C239.991 57.7292 244.457 55.7239 248.103 51.8044C251.658 47.7938 253.572 42.7804 253.572 36.8556C253.572 31.1131 251.749 26.191 248.103 22.3626ZM241.54 50.0725C239.808 52.6248 237.621 53.8097 234.795 53.8097C232.334 53.8097 230.329 52.7159 228.779 50.5283C226.592 47.338 225.498 42.7804 225.498 36.8556C225.498 31.022 226.592 26.6467 228.597 23.6387C230.146 21.4511 232.243 20.3573 234.795 20.3573C237.621 20.3573 239.717 21.4511 241.267 23.7299C243.363 26.7379 244.366 31.3866 244.366 37.676C244.366 43.3274 243.455 47.5203 241.54 50.0725ZM268.708 17.167L257.679 19.0812V22.0892H258.955H259.046C259.958 21.998 260.596 22.0892 261.052 22.6361C261.872 23.5476 262.237 25.1883 262.237 27.8317C262.237 28.014 262.237 48.3407 262.145 48.7964C262.145 51.0752 261.781 52.6248 261.052 53.354C260.596 53.9009 260.049 54.0832 259.229 54.0832C259.137 54.0832 259.137 54.0832 259.046 54.0832H257.77V57.0912H275.636V54.0832H274.086C273.357 54.0832 272.81 53.8097 272.354 53.354C271.625 52.5336 271.169 50.8017 271.169 48.1584C271.169 48.1584 271.261 36.1264 271.261 27.5582C273.175 25.4618 274.633 24.1856 275.909 23.5476C276.365 23.2741 276.912 23.183 277.55 23.183C278.279 23.183 279.1 23.2741 279.92 23.6387C280.285 23.821 280.74 24.0033 281.196 24.2768C282.199 24.8237 283.201 25.4618 284.295 25.5529C284.386 25.5529 284.569 25.5529 284.66 25.5529C285.754 25.5529 286.847 25.006 287.577 24.0033C288.215 23.0918 288.579 21.9069 288.488 20.8131C288.488 19.7192 288.032 18.8077 287.394 18.1697C286.756 17.5316 285.662 16.9847 284.751 16.7113C284.113 16.529 283.566 16.529 283.019 16.529H282.928C278.735 16.6201 274.177 19.2635 271.261 21.998V17.167H268.708ZM302.26 0.668688L292.052 2.40056L291.049 2.58286V5.59084H292.69C293.419 5.59084 293.966 5.68199 294.421 6.2289C295.242 7.04926 295.606 8.68997 295.606 11.3334V48.1584C295.606 50.8017 295.242 52.5336 294.421 53.354C294.057 53.8097 293.51 54.0832 292.69 54.0832H291.231V57H309.006V54.0832H307.547C306.727 54.0832 306.18 53.8097 305.815 53.354C304.995 52.5336 304.63 50.8017 304.63 48.1584V0.668688H302.26ZM330.467 16.4378C320.258 16.4378 313.148 24.4591 312.783 36.3087C312.692 36.7645 312.692 37.2202 312.783 37.7671C313.148 49.5256 320.44 57.7292 330.467 57.7292C333.93 57.7292 337.303 56.3619 340.129 53.7186L341.952 57L352.525 57.0912V54.0832H351.067C349.791 54.0832 348.606 53.6274 348.241 50.8929V0.668688H345.871L334.66 2.58286V5.59084H336.209C337.03 5.59084 337.576 5.68199 338.032 6.2289C338.853 7.04926 339.217 8.78112 339.217 11.3334V19.5369C337.394 18.1697 334.295 16.4378 330.467 16.4378ZM339.217 49.4345C338.853 49.8902 338.397 50.346 338.123 50.5283C337.212 51.2575 336.209 51.8044 335.115 52.169C333.93 52.5336 332.745 52.7159 331.469 52.7159C329.555 52.7159 326.821 52.169 325.089 49.8902C324.451 48.9787 323.904 47.7938 323.357 46.4265C322.901 45.0592 322.537 43.6008 322.354 41.9601C321.99 38.2229 321.99 34.668 322.537 31.2954C322.81 29.6547 323.175 28.2874 323.63 27.1025C324.086 25.7352 324.724 24.7326 325.453 23.821C326.091 23.0918 326.821 22.5449 327.641 22.0892C328.735 21.6334 330.011 21.36 331.56 21.36C335.662 21.36 338.306 23.6387 339.217 24.5502V49.4345ZM363.241 57.7292C366.158 57.7292 368.528 55.3593 368.528 52.4425C368.528 49.5256 366.158 47.1557 363.241 47.1557C360.324 47.1557 358.046 49.5256 358.046 52.4425C358.046 55.3593 360.324 57.7292 363.241 57.7292Z" fill="url(#paint0_linear_20_719)"/>
<defs>
<linearGradient id="paint0_linear_20_719" x1="298.567" y1="26.7034" x2="-73" y2="26.7034" gradientUnits="userSpaceOnUse">
<stop stop-color="#725E7D"/>
<stop offset="1" stop-color="#A797B0"/>
</linearGradient>
</defs>
</svg>
