<svg width="582" height="92" viewBox="0 0 582 92" fill="none" xmlns="http://www.w3.org/2000/svg">
<path d="M25.936 5.90399C26.656 5.18399 27.952 4.752 29.248 4.752H31.84V0H0.448V4.752H2.752C4.336 4.752 5.344 5.18399 6.208 5.90399C7.648 7.344 8.224 9.93599 8.224 13.968V76.032C8.224 80.208 7.648 82.8 6.208 84.096C5.344 84.96 4.192 85.392 2.464 85.392H0.448V90H31.84V85.392H29.392C27.808 85.392 26.656 84.96 25.936 84.24C24.496 82.8 23.92 80.208 23.92 76.032V42.768H67.552V76.032C67.552 80.208 66.832 82.8 65.536 84.24C64.672 84.96 63.52 85.392 62.08 85.392H59.632V90H91.024V85.392H88.72C87.136 85.392 85.984 84.96 85.264 84.24C83.824 82.8 83.248 80.208 83.248 76.032V14.112C83.248 9.93599 83.824 7.344 85.264 5.90399C86.128 5.18399 87.136 4.752 88.72 4.752H91.024V0H59.632V4.752H62.08C63.52 4.752 64.672 5.18399 65.536 5.90399C66.832 7.344 67.552 9.93599 67.552 13.968V36.864H23.92V14.112C23.92 9.93599 24.496 7.344 25.936 5.90399ZM102.114 84.096C101.25 84.96 100.098 85.392 98.6582 85.392H96.3543V90H161.73V70.56H156.978L156.546 71.424C154.242 76.464 152.802 78.48 152.082 79.2C148.77 82.656 144.018 84.24 136.674 84.24H119.826V44.208H130.338C139.122 44.208 143.154 46.224 145.314 51.408L146.178 53.136H150.93V30.528H146.178L145.458 32.256C143.298 36.72 138.978 38.448 130.338 38.448H119.826V5.90399H133.938C144.594 5.90399 150.498 9.21599 153.666 16.848L154.242 18H158.85V0H96.3543V4.752H98.6582C100.242 4.752 101.25 5.18399 102.114 5.90399C103.554 7.344 104.13 9.93599 104.13 13.968V76.032C104.13 80.208 103.554 82.8 102.114 84.096ZM174.396 84.096C173.532 84.96 172.38 85.392 170.796 85.392C170.796 85.392 170.652 85.392 170.508 85.392H168.636V90H200.028V85.392H197.58C195.996 85.392 194.988 84.96 194.124 84.24C192.684 82.8 192.108 80.208 192.108 76.032V49.392H199.74C200.028 49.536 200.316 49.68 200.46 49.824L200.748 50.112C200.892 50.112 201.036 50.256 201.18 50.256C202.476 50.976 203.772 51.84 204.78 52.848C207.516 55.152 209.964 58.176 211.836 61.632C213.132 64.08 214.284 66.384 215.868 69.408V69.696C218.748 75.456 221.34 80.496 224.796 84.096C228.684 88.128 233.436 90 239.628 90H241.644C244.092 90 250.284 90 250.284 90H251.868V85.392L250.14 85.104C245.388 84.24 241.356 79.632 239.052 76.752L238.764 76.464C235.596 72.72 232.716 68.832 230.124 64.944L227.82 61.632L226.092 59.328C225.372 58.464 224.796 57.6 224.076 56.736C221.196 53.28 218.172 50.688 214.86 48.672C222.492 47.52 228.684 44.928 233.004 41.04C237.9 36.72 240.492 30.96 240.492 24.048C240.492 16.56 237.612 10.368 231.996 6.192C226.38 2.16 218.46 0 208.523 0H168.636V4.752H170.939C172.38 4.752 173.532 5.18399 174.396 6.048C175.836 7.344 176.412 9.93599 176.412 14.112V76.032C176.412 80.208 175.836 82.8 174.396 84.096ZM208.523 5.90399C218.748 5.90399 224.22 12.24 224.22 24.048C224.22 36.288 217.02 43.632 205.068 43.632H192.108V5.90399H208.523ZM309.258 90.144H313.29L330.426 38.16C331.578 34.56 334.746 31.824 337.77 31.824H339.93V27.072H319.77V31.824H321.21C321.354 31.824 321.498 31.824 321.642 31.824C321.786 31.824 321.93 31.824 322.074 31.824C322.218 31.824 322.506 31.824 322.794 31.824C323.226 31.824 323.658 32.112 323.802 32.4C324.666 33.552 324.522 36 323.658 38.88C323.37 39.6 318.186 55.44 315.162 64.368L302.49 27.072H294.138L280.17 66.816C277.578 57.744 272.394 38.736 271.962 37.584C271.674 35.424 271.674 33.408 272.106 32.832C272.25 32.544 272.682 31.824 274.842 31.824H277.29V27.072H247.482V31.824H249.642C252.234 31.824 253.818 32.976 255.402 36C255.546 36.144 255.978 37.44 256.41 38.88L271.53 89.424L271.818 90.144H278.298L294.426 44.928L308.826 88.704L309.258 90.144ZM391.723 35.28L391.579 35.136C385.963 29.088 379.195 26.064 371.419 26.064C363.643 26.064 356.875 28.8 351.259 34.128C344.779 40.464 341.611 48.528 341.611 58.32C341.611 67.968 344.347 75.888 349.963 81.936C355.579 87.984 362.635 91.152 370.843 91.152C378.907 91.152 385.963 87.984 391.723 81.792C397.339 75.456 400.363 67.536 400.363 58.176C400.363 49.104 397.483 41.328 391.723 35.28ZM381.355 79.056C378.619 83.088 375.163 84.96 370.699 84.96C366.811 84.96 363.643 83.232 361.195 79.776C357.739 74.736 356.011 67.536 356.011 58.176C356.011 48.96 357.739 42.048 360.907 37.296C363.355 33.84 366.667 32.112 370.699 32.112C375.163 32.112 378.475 33.84 380.923 37.44C384.235 42.192 385.819 49.536 385.819 59.472C385.819 68.4 384.379 75.024 381.355 79.056ZM424.275 27.072L406.851 30.096V34.848H408.867H409.011C410.451 34.704 411.459 34.848 412.179 35.712C413.475 37.152 414.051 39.744 414.051 43.92C414.051 44.208 414.051 76.32 413.907 77.04C413.907 80.64 413.331 83.088 412.179 84.24C411.459 85.104 410.595 85.392 409.299 85.392C409.155 85.392 409.155 85.392 409.011 85.392H406.995V90.144H435.219V85.392H432.771C431.619 85.392 430.755 84.96 430.035 84.24C428.883 82.944 428.163 80.208 428.163 76.032C428.163 76.032 428.307 57.024 428.307 43.488C431.331 40.176 433.635 38.16 435.651 37.152C436.371 36.72 437.235 36.576 438.243 36.576C439.395 36.576 440.691 36.72 441.987 37.296C442.563 37.584 443.283 37.872 444.003 38.304C445.587 39.168 447.171 40.176 448.899 40.32C449.043 40.32 449.331 40.32 449.475 40.32C451.203 40.32 452.931 39.456 454.083 37.872C455.091 36.432 455.667 34.56 455.523 32.832C455.523 31.104 454.803 29.664 453.795 28.656C452.787 27.648 451.059 26.784 449.619 26.352C448.611 26.064 447.747 26.064 446.883 26.064H446.739C440.115 26.208 432.915 30.384 428.307 34.704V27.072H424.275ZM477.28 1.008L461.152 3.74399L459.568 4.032V8.784H462.16C463.312 8.784 464.176 8.928 464.896 9.79199C466.192 11.088 466.768 13.68 466.768 17.856V76.032C466.768 80.208 466.192 82.944 464.896 84.24C464.32 84.96 463.456 85.392 462.16 85.392H459.856V90H487.936V85.392H485.632C484.336 85.392 483.472 84.96 482.896 84.24C481.6 82.944 481.024 80.208 481.024 76.032V1.008H477.28ZM521.841 25.92C505.713 25.92 494.481 38.592 493.905 57.312C493.761 58.032 493.761 58.752 493.905 59.616C494.481 78.192 506.001 91.152 521.841 91.152C527.312 91.152 532.641 88.992 537.105 84.816L539.985 90L556.689 90.144V85.392H554.385C552.369 85.392 550.497 84.672 549.921 80.352V1.008H546.177L528.465 4.032V8.784H530.913C532.209 8.784 533.073 8.928 533.793 9.79199C535.089 11.088 535.665 13.824 535.665 17.856V30.816C532.785 28.656 527.889 25.92 521.841 25.92ZM535.665 78.048C535.089 78.768 534.369 79.488 533.937 79.776C532.497 80.928 530.913 81.792 529.185 82.368C527.312 82.944 525.441 83.232 523.425 83.232C520.401 83.232 516.081 82.368 513.345 78.768C512.337 77.328 511.473 75.456 510.609 73.296C509.889 71.136 509.312 68.832 509.025 66.24C508.449 60.336 508.449 54.72 509.312 49.392C509.745 46.8 510.32 44.64 511.041 42.768C511.761 40.608 512.769 39.024 513.921 37.584C514.929 36.432 516.081 35.568 517.377 34.848C519.105 34.128 521.121 33.696 523.569 33.696C530.049 33.696 534.225 37.296 535.665 38.736V78.048ZM573.618 91.152C578.226 91.152 581.97 87.408 581.97 82.8C581.97 78.192 578.226 74.448 573.618 74.448C569.01 74.448 565.41 78.192 565.41 82.8C565.41 87.408 569.01 91.152 573.618 91.152Z" fill="url(#paint0_linear_3_360)"/>
<defs>
<linearGradient id="paint0_linear_3_360" x1="585" y1="41.0001" x2="-2.00001" y2="41" gradientUnits="userSpaceOnUse">
<stop stop-color="#725E7D"/>
<stop offset="1" stop-color="#A797B0"/>
</linearGradient>
</defs>
</svg>
