<svg width="743" height="557" viewBox="0 0 743 557" fill="none" xmlns="http://www.w3.org/2000/svg">
<path opacity="0.5" fill-rule="evenodd" clip-rule="evenodd" d="M342.132 0.651972C405.167 -0.523438 459.771 28.5221 515.804 52.8479C581.953 81.5649 688.265 87.3447 714.742 146.409C741.235 205.511 758.801 277.272 717.834 330.383C683.612 374.751 624.339 384.459 579.342 421.224C523.986 466.453 467.917 543.149 392.562 554.882C319.625 566.239 204.307 509.043 144.143 472.546C84.7025 436.489 13.5877 420.979 2.06386 359.532C-9.83398 296.091 58.307 194.518 90.9851 136.392C116.435 91.1227 130.085 95.5741 170.864 59.2799C214.492 20.4496 279.179 1.82583 342.132 0.651972Z" fill="#DA8C8C" fill-opacity="0.4"/>
</svg>
