<svg width="966" height="615" viewBox="0 0 966 615" fill="none" xmlns="http://www.w3.org/2000/svg">
<path opacity="0.5" fill-rule="evenodd" clip-rule="evenodd" d="M473.973 0.000359178C560.115 -0.124036 634.044 32.0873 710.035 59.2508C799.744 91.3177 920.537 108.098 955.351 172.072C990.188 236.087 933.205 307.905 876.019 364.261C828.247 411.339 730.134 416.724 667.816 455.434C591.154 503.055 577.188 602.753 473.973 614.005C374.069 624.896 309.469 543.69 228.115 503.368C147.738 463.531 15.4807 445.924 1.14864 379.659C-13.6485 311.243 118.574 271.377 164.551 209.481C200.36 161.275 182.106 98.2116 238.649 59.9315C299.143 18.9765 387.944 0.124591 473.973 0.000359178Z" fill="#DA8C8C" fill-opacity="0.4"/>
</svg>
